# xmcd CD database file
# Copyright (C) 1993-1996 Ti Kan
#
# Track frame offsets:
#	183
#	12548
#	35513
#	52665
#	66408
#	80405
#	91923
#	139315
#	164065
#	176133
#	237120
#	265253
#
# Disc length: 3751 seconds
#
# Revision: 1
# Processed by: cddbd v1.4b41PL1 Copyright (c) Steve Scherf et al.
# Submitted via: xmcd 2.0
#
DISCID=a40ea50c
DTITLE=The Golden Gate Quartet - Live   Disk two of two
DYEAR=1900
DGENRE=
TTITLE0=BLUE SUEDE SHOES
TTITLE1=FRANKIE AND JOHNNY
TTITLE2=TONIGHT
TTITLE3=MACK THE KNIFE
TTITLE4=THE GREAT PRETENDER
TTITLE5=ON THE SUNNY SIDE OF THE STREET
TTITLE6=ONLY YOU
TTITLE7=MY WAY
TTITLE8=KANSAS CITY
TTITLE9=MEDLEY (French songs)
TTITLE10=REMEMBER
TTITLE11=SAINT LOUIS BLUES
EXTD=Carrere 96790 CD2\n\nGolden gate Quartet:\nOrlandus Wilson basse,\nC
EXTD=lyde Riddick premier tenor,\nClyde Wright deuxieme tenor,\nPaul Br
EXTD=embly baryton.\n\nIt was probably recorded in the early 1990's in 
EXTD=France.
EXTT0=
EXTT1=
EXTT2=
EXTT3=
EXTT4=
EXTT5=
EXTT6=
EXTT7=
EXTT8=
EXTT9=
EXTT10=
EXTT11=
PLAYORDER=
